#!OML:ASF F:\VICON\USERDATA\INSTALL\Justin_Nancy\Justin_Nancy.ASF
:FULLY-SPECIFIED
:DEGREES
132
root -0.294527 16.722 13.048 15.4832 -3.61907 5.91204
lowerback 11.1183 -2.25409 -5.17514
upperback 0.399302 -3.54969 1.64314
thorax -5.3958 -1.59625 5.19283
lowerneck -23.1721 -3.29911 -9.08843
upperneck 4.51597 -2.725 8.40084
head 5.27061 -0.881994 3.86368
rclavicle 4.1546e-014 2.62396e-014
rhumerus -80.4194 2.67859 -81.3771
rradius 117.987
rwrist -14.3797
rhand -26.7141 25.1632
rfingers 7.12502
rthumb -0.143997 -4.81652
lclavicle 4.1546e-014 2.62396e-014
lhumerus -34.2759 -28.9993 100.712
lradius 138.157
lwrist 48.7147
lhand -12.9899 5.04241
lfingers 7.12502
lthumb 13.1029 34.6108
rfemur -60.0898 -3.89136 17.5011
rtibia 72.7317
rfoot -14.0627 -0.172146
rtoes -18.4147
lfemur 11.5903 -7.26968 -29.1656
ltibia 21.0367
lfoot 30.4994 -2.48025
ltoes -23.1897
133
root -0.283994 16.7678 13.6972 15.2559 -4.69494 5.92692
lowerback 11.0624 -2.11445 -5.03308
upperback 0.272558 -3.34623 1.65425
thorax -5.53133 -1.49199 5.09728
lowerneck -23.3466 -3.28891 -9.16308
upperneck 4.71129 -2.65182 8.11942
head 5.34594 -0.866668 3.79273
rclavicle -4.45278e-014 1.66979e-014
rhumerus -80.5613 2.88729 -81.1565
rradius 118.286
rwrist -12.8163
rhand -21.8694 33.0349
rfingers 7.12502
rthumb 4.53489 3.1034
lclavicle -4.45278e-014 1.66979e-014
lhumerus -35.5416 -28.9356 99.9741
lradius 138.165
lwrist 51.8684
lhand -13.2247 4.85419
lfingers 7.12502
lthumb 12.8766 34.437
rfemur -59.6266 -3.51418 17.5722
rtibia 67.6706
rfoot -14.5438 0.0599503
rtoes -20.3452
lfemur 13.7664 -9.64457 -30.91
ltibia 19.6086
lfoot 33.5146 -5.28839
ltoes -19.1714
134
root -0.275964 16.8096 14.3351 14.8656 -5.96643 6.13021
lowerback 11.2176 -1.89253 -5.15281
upperback 0.199361 -3.08049 1.58731
thorax -5.72615 -1.34994 5.06749
lowerneck -23.424 -3.29224 -9.26478
upperneck 4.85966 -2.59573 7.85423
head 5.39448 -0.861533 3.72899
rclavicle -1.15295e-014 6.36111e-015
rhumerus -80.4684 3.18145 -81.2007
rradius 118.576
rwrist -11.8971
rhand -24.0814 30.2632
rfingers 7.12502
rthumb 2.3987 0.296975
lclavicle -1.15295e-014 6.36111e-015
lhumerus -36.9111 -28.1599 98.9819
lradius 137.365
lwrist 55.4344
lhand -13.3418 5.22978
lfingers 7.12502
lthumb 12.7637 34.8196
rfemur -58.7568 -3.05746 17.4806
rtibia 62.6692
rfoot -14.5325 0.664345
rtoes -19.3033
lfemur 15.1771 -10.6505 -32.7154
ltibia 19.6312
lfoot 35.5241 -7.93409
ltoes -7.32928
135
root -0.260151 16.835 14.9502 14.2764 -7.0745 6.36434
lowerback 11.7197 -1.64273 -5.11019
upperback 0.0887612 -2.778 1.47365
thorax -6.17078 -1.18479 4.9074
lowerneck -23.2848 -3.3463 -9.45372
upperneck 5.04239 -2.60312 7.60495
head 5.42905 -0.892564 3.67702
rclavicle 2.22639e-014 2.78299e-014
rhumerus -80.353 3.41252 -81.3248
rradius 118.897
rwrist -11.5209
rhand -22.0948 30.8901
rfingers 7.12502
rthumb 4.31718 0.954142
lclavicle 2.22639e-014 2.78299e-014
lhumerus -38.5418 -27.0472 98.0759
lradius 135.744
lwrist 58.3401
lhand -14.7332 7.55214
lfingers 7.12502
lthumb 11.4221 37.221
rfemur -57.5551 -3.10159 17.688
rtibia 57.9254
rfoot -14.5063 1.18051
rtoes -20.7391
lfemur 15.9483 -10.6257 -34.2071
ltibia 21.037
lfoot 35.6718 -8.71817
ltoes 2.13839
136
root -0.23517 16.8467 15.5584 13.4955 -8.03908 6.88452
lowerback 12.2954 -1.41898 -5.16247
upperback 0.136549 -2.53139 1.2526
thorax -6.48121 -1.05485 4.68831
lowerneck -23.4443 -3.42191 -9.43061
upperneck 5.25326 -2.64769 7.13611
head 5.51295 -0.949519 3.51461
rclavicle -2.8625e-014 -2.38542e-014
rhumerus -79.6076 3.45963 -81.619
rradius 118.741
rwrist -11.4048
rhand -31.2498 12.3562
rfingers 7.12502
rthumb -4.52437 -17.5755
lclavicle -2.8625e-014 -2.38542e-014
lhumerus -39.9711 -25.6624 97.1201
lradius 133.326
lwrist 60.2767
lhand -16.5546 9.26081
lfingers 7.12502
lthumb 9.66509 39.0191
rfemur -56.3901 -3.88471 18.01
rtibia 53.6832
rfoot -14.0663 2.10178
rtoes -22.998
lfemur 16.2753 -10.0888 -35.7644
ltibia 23.728
lfoot 35.2667 -9.70512
ltoes 3.80952
137
root -0.212519 16.858 16.1682 12.7617 -8.99801 7.37457
lowerback 12.5749 -1.20613 -5.19849
upperback 0.455998 -2.27831 1.00331
thorax -6.33546 -0.945609 4.40368
lowerneck -23.9416 -3.4904 -9.30938
upperneck 5.20419 -2.67355 6.68927
head 5.56092 -0.987135 3.34438
rclavicle 4.05521e-014 -7.95139e-015
rhumerus -78.0133 3.52914 -82.0761
rradius 118.241
rwrist -11.592
rhand -23.7026 32.0854
rfingers 7.12502
rthumb 2.76461 2.12353
lclavicle 4.05521e-014 -7.95139e-015
lhumerus -40.6471 -24.1587 95.6707
lradius 130.091
lwrist 61.6688
lhand -19.6479 10.5454
lfingers 7.12502
lthumb 6.67975 40.4201
rfemur -55.3428 -4.76041 18.4632
rtibia 50.0179
rfoot -13.7095 3.43699
rtoes -24.6589
lfemur 15.9952 -9.20516 -37.0283
ltibia 27.3465
lfoot 35.2723 -10.1215
ltoes 0.815942
138
root -0.200197 16.8668 16.7767 12.133 -9.84239 7.55264
lowerback 12.6176 -0.946465 -4.95156
upperback 0.913756 -1.90319 0.811802
thorax -5.92788 -0.794791 3.98711
lowerneck -24.2746 -3.65671 -9.26477
upperneck 4.78862 -2.82902 6.38669
head 5.48006 -1.07869 3.21727
rclavicle -1.94809e-014 3.18055e-015
rhumerus -76.1351 3.52442 -82.9943
rradius 117.104
rwrist -13.5266
rhand -21.8128 31.9416
rfingers 7.12502
rthumb 4.5895 2.01128
lclavicle -1.94809e-014 3.18055e-015
lhumerus -40.7912 -22.8988 94.0768
lradius 126.291
lwrist 62.8439
lhand -23.6046 11.9347
lfingers 7.12502
lthumb 2.8592 41.8953
rfemur -54.2529 -5.54284 19.2753
rtibia 47.0256
rfoot -13.786 4.60128
rtoes -25.204
lfemur 15.1517 -7.99455 -37.6076
ltibia 31.5505
lfoot 35.9146 -9.91093
ltoes -1.55226
